<?xml version="1.0" encoding="UTF-8" standalone="no"?>
<svg
   xmlns:dc="http://purl.org/dc/elements/1.1/"
   xmlns:cc="http://creativecommons.org/ns#"
   xmlns:rdf="http://www.w3.org/1999/02/22-rdf-syntax-ns#"
   xmlns:svg="http://www.w3.org/2000/svg"
   xmlns="http://www.w3.org/2000/svg"
   version="1.1"
   id="svg2"
   viewBox="0 0 2600.7844 722.83451"
   height="204mm"
   width="734mm">
  <defs
     id="defs4" />
  <metadata
     id="metadata7">
    <rdf:RDF>
      <cc:Work
         rdf:about="">
        <dc:format>image/svg+xml</dc:format>
        <dc:type
           rdf:resource="http://purl.org/dc/dcmitype/StillImage" />
        <dc:title></dc:title>
      </cc:Work>
    </rdf:RDF>
  </metadata>
  <g
     transform="translate(0,-329.52775)"
     id="layer1">
    <g
       id="text4136"
       style="font-style:normal;font-weight:normal;font-size:138.58218384px;line-height:125%;font-family:sans-serif;letter-spacing:0px;word-spacing:0px;fill:none;fill-opacity:1;stroke:#000000;stroke-width:21.3999958;stroke-linecap:butt;stroke-linejoin:miter;stroke-miterlimit:8.80000019;stroke-dasharray:none;stroke-opacity:1"
       transform="scale(1.0230306,0.97748789)">
      <path
         id="path4141"
         style="font-style:normal;font-variant:normal;font-weight:normal;font-stretch:normal;font-size:623.61968994px;font-family:SignPainter;-inkscape-font-specification:SignPainter;fill:none;stroke:#000000;stroke-width:21.3999958;stroke-miterlimit:8.80000019;stroke-dasharray:none;stroke-opacity:1"
         d="m 242.54525,512.24463 c -54.25491,85.4359 -112.87516,202.6764 -129.08927,259.42579 -9.3543,33.67547 -3.1181,52.38406 5.61257,61.73835 4.36534,4.36534 7.48344,4.36534 9.97792,-1.87086 21.82669,-51.76043 40.53528,-92.91933 57.99663,-127.21841 10.60154,6.23619 24.32117,8.73067 38.66442,6.23619 81.69418,-15.59049 149.04511,-62.36197 180.22609,-111.0043 21.20307,-33.05185 31.80461,-69.22179 18.70859,-106.63897 -14.96687,-43.02976 -42.40614,-53.00767 -74.21074,-51.76043 -42.40614,1.87086 -89.17762,28.06288 -140.93805,33.67546 -8.10706,0.62362 -9.3543,4.36534 -6.2362,11.22515 6.2362,13.09602 18.08497,23.69755 39.28804,26.19203 z m -37.41718,157.15216 c 18.70859,-34.9227 36.16994,-63.60921 52.38406,-92.29571 17.46135,-29.93375 23.69754,-51.76044 23.69754,-68.59817 41.1589,-11.84877 103.52087,-44.277 116.61689,-9.97791 16.83773,43.65338 -53.00768,144.67977 -192.69849,170.87179 z" />
      <path
         id="path4143"
         style="font-style:normal;font-variant:normal;font-weight:normal;font-stretch:normal;font-size:623.61968994px;font-family:SignPainter;-inkscape-font-specification:SignPainter;fill:none;stroke:#000000;stroke-width:21.3999958;stroke-miterlimit:8.80000019;stroke-dasharray:none;stroke-opacity:1"
         d="m 622.3394,772.91766 c 9.3543,-18.70859 9.3543,-31.8046 6.2362,-38.66442 -2.49448,-4.98896 -8.73068,-4.98896 -11.22516,0.62362 -19.33221,39.91166 -53.63129,84.81228 -79.1997,86.05952 -23.07393,1.24724 -26.19202,-28.06289 -10.60153,-64.23283 14.34325,-32.42822 44.277,-77.95246 57.99663,-105.39173 16.21411,-31.8046 -3.1181,-62.98559 -24.32117,-65.48007 -16.83773,-1.87085 -49.26595,18.7086 -74.83436,43.65338 26.81564,-41.78252 59.86749,-92.29571 74.83436,-117.2405 23.69755,-39.28804 25.56841,-70.46902 17.46135,-88.55399 -3.1181,-7.48344 -9.35429,-8.10706 -14.96687,-0.62362 -50.5132,62.98558 -180.22609,282.49971 -202.05278,344.86168 -13.09601,37.41719 -7.48344,54.87854 2.49448,66.10369 3.74172,4.36534 8.10705,3.1181 10.60153,-2.49448 14.96688,-38.0408 38.0408,-81.69418 60.49111,-118.48774 36.16995,-59.24387 104.14449,-101.65001 112.87517,-96.66105 9.97791,5.61258 -44.277,70.46902 -64.85645,130.96013 -18.70859,54.25492 -5.61258,92.29572 46.77148,92.29572 36.79356,0 74.83436,-31.18099 92.29571,-66.72731 z" />
      <path
         id="path4145"
         style="font-style:normal;font-variant:normal;font-weight:normal;font-stretch:normal;font-size:623.61968994px;font-family:SignPainter;-inkscape-font-specification:SignPainter;fill:none;stroke:#000000;stroke-width:21.3999958;stroke-miterlimit:8.80000019;stroke-dasharray:none;stroke-opacity:1"
         d="m 753.27029,543.42562 c -8.10706,-16.83774 -26.19203,-24.32117 -36.16994,-13.71964 -9.97792,10.60154 -13.09601,29.31013 -3.1181,46.14786 9.3543,16.21411 26.81565,18.08497 34.9227,9.35429 8.10706,-8.73067 12.4724,-25.5684 4.36534,-41.78251 z M 651.62028,839.02135 c 34.9227,0 74.21074,-26.19203 92.91934,-64.85645 7.48343,-15.59049 9.35429,-28.6865 4.36533,-38.66442 -2.49448,-4.98896 -6.85981,-5.61258 -9.97791,0 -18.70859,43.02976 -53.00768,84.18866 -81.07056,85.4359 -19.95583,1.24724 -21.20307,-23.07393 -6.2362,-59.24387 13.09601,-31.18099 39.28804,-73.58713 52.38406,-101.02639 14.96687,-31.18099 9.97791,-57.99663 0.62362,-67.97455 -4.98896,-5.61258 -9.3543,-3.74172 -14.96688,3.74172 -23.07393,32.42822 -64.23283,106.01535 -79.82332,151.53958 -17.46135,51.13682 -5.61258,91.04848 41.78252,91.04848 z" />
      <path
         id="path4147"
         style="font-style:normal;font-variant:normal;font-weight:normal;font-stretch:normal;font-size:623.61968994px;font-family:SignPainter;-inkscape-font-specification:SignPainter;fill:none;stroke:#000000;stroke-width:21.3999958;stroke-miterlimit:8.80000019;stroke-dasharray:none;stroke-opacity:1"
         d="m 792.72399,704.94312 c 55.50215,-36.16995 125.34756,-111.00431 144.67977,-187.70953 7.48343,-29.31013 3.74172,-52.38406 -14.34325,-68.59817 -8.73068,-8.10705 -17.46136,-6.85981 -26.81565,3.1181 -63.60921,66.10369 -134.70185,178.97885 -157.77578,287.48868 -14.34326,67.35092 8.73067,97.28467 51.76043,98.53191 49.88958,1.24724 95.41381,-50.5132 104.14449,-69.22179 6.85982,-14.96687 9.35429,-28.6865 6.2362,-38.66442 -2.49448,-8.73067 -9.3543,-8.10705 -13.71964,0 -24.32116,48.01872 -67.97454,92.91934 -97.90829,90.42486 -28.06288,-2.49448 -21.20307,-54.25492 3.74172,-115.36964 z m 11.22515,-26.81565 c 4.36534,-9.97792 9.3543,-19.95583 14.96688,-29.93375 43.02976,-79.82332 89.17761,-149.0451 97.28467,-144.05614 8.10705,4.98895 -26.81565,104.7681 -112.25155,173.98989 z" />
      <path
         id="path4149"
         style="font-style:normal;font-variant:normal;font-weight:normal;font-stretch:normal;font-size:623.61968994px;font-family:SignPainter;-inkscape-font-specification:SignPainter;fill:none;stroke:#000000;stroke-width:21.3999958;stroke-miterlimit:8.80000019;stroke-dasharray:none;stroke-opacity:1"
         d="m 953.28658,587.07899 c -26.81565,49.26596 -53.00768,101.65001 -66.10369,132.831 -29.93375,71.71626 3.1181,117.86412 44.277,119.11136 49.88957,1.87086 91.04851,-53.00768 99.15551,-71.09265 6.2362,-14.34325 9.3543,-25.5684 6.2362,-35.54632 -2.4945,-8.73067 -9.3543,-7.48343 -13.096,0 -23.0739,46.77148 -58.62025,91.04848 -86.68314,89.80124 -26.19202,-1.24724 -33.05184,-39.91166 -12.47239,-85.4359 23.69755,-52.38405 59.24387,-112.87516 83.56503,-154.65768 15.5905,-2.49448 34.9227,-4.36534 48.6423,-2.49448 9.3543,0 11.8488,-4.36534 7.4835,-11.84878 -4.989,-8.10705 -14.3433,-19.33221 -38.6644,-18.70859 14.9668,-32.42822 14.9668,-53.00767 8.107,-70.46902 -3.1181,-7.48344 -9.3543,-8.10706 -14.9669,0 -10.6015,13.71963 -28.06284,43.02976 -47.39505,77.32884 -16.83774,1.87086 -34.29909,3.1181 -51.76044,2.49448 -9.35429,-0.62362 -13.09601,3.74172 -6.85981,12.47239 4.98895,6.85982 19.33221,16.21411 40.53528,16.21411 z" />
      <path
         id="path4151"
         style="font-style:normal;font-variant:normal;font-weight:normal;font-stretch:normal;font-size:623.61968994px;font-family:SignPainter;-inkscape-font-specification:SignPainter;fill:none;stroke:#000000;stroke-width:21.3999958;stroke-miterlimit:8.80000019;stroke-dasharray:none;stroke-opacity:1"
         d="m 1258.1391,772.91766 c 9.3543,-18.70859 9.3543,-31.8046 6.2362,-38.66442 -2.4944,-4.98896 -8.7306,-4.98896 -11.2251,0.62362 -19.3322,39.91166 -53.6313,84.81228 -79.1997,86.05952 -23.0739,1.24724 -26.192,-28.06289 -10.6015,-64.23283 14.3432,-32.42822 44.2769,-77.95246 57.9966,-105.39173 16.2141,-31.8046 -3.1181,-62.98559 -24.3212,-65.48007 -16.8377,-1.87085 -49.2659,18.7086 -74.8343,43.65338 26.8156,-41.78252 59.8674,-92.29571 74.8343,-117.2405 23.6976,-39.28804 25.5684,-70.46902 17.4614,-88.55399 -3.1181,-7.48344 -9.3543,-8.10706 -14.9669,-0.62362 -50.5132,62.98558 -180.2261,282.49971 -202.05279,344.86168 -13.09601,37.41719 -7.48343,54.87854 2.49448,66.10369 3.74171,4.36534 8.10701,3.1181 10.60151,-2.49448 14.9669,-38.0408 38.0408,-81.69418 60.4911,-118.48774 36.17,-59.24387 104.1445,-101.65001 112.8752,-96.66105 9.9779,5.61258 -44.277,70.46902 -64.8564,130.96013 -18.7086,54.25492 -5.6126,92.29572 46.7714,92.29572 36.7936,0 74.8344,-31.18099 92.2957,-66.72731 z" />
      <path
         id="path4153"
         style="font-style:normal;font-variant:normal;font-weight:normal;font-stretch:normal;font-size:623.61968994px;font-family:SignPainter;-inkscape-font-specification:SignPainter;fill:none;stroke:#000000;stroke-width:21.3999958;stroke-miterlimit:8.80000019;stroke-dasharray:none;stroke-opacity:1"
         d="m 1485.1075,769.17594 c 10.6015,-16.21411 12.4724,-30.55736 11.2251,-36.16994 -1.2472,-6.2362 -6.8598,-5.61258 -9.9779,-1.24724 -24.9448,34.29908 -61.7383,69.84541 -110.3807,96.03743 26.192,-60.49111 64.2328,-135.32547 82.9414,-171.49541 16.2142,-31.8046 11.2252,-58.62025 2.4945,-69.84541 -5.6126,-4.98895 -9.9779,-3.74171 -15.5905,4.36534 -21.8267,31.80461 -48.6423,87.93038 -75.458,134.07824 -31.8046,54.25491 -62.9855,94.16657 -87.3067,92.29571 -14.3433,-1.24724 -15.5905,-23.07393 -3.1181,-53.63129 11.8488,-29.31013 25.5684,-54.87854 48.0187,-91.04848 23.0739,-36.79356 26.8157,-62.98559 11.8488,-82.94142 -4.3654,-6.23619 -10.6016,-6.85981 -15.5905,0 -40.5353,56.12577 -71.0927,117.86412 -84.8123,157.77578 -14.3432,41.1589 -13.096,86.68314 31.8046,90.42486 24.9448,1.87086 48.6423,-14.34325 67.9746,-34.29908 -6.8599,14.96687 -13.0961,30.55736 -19.3323,44.90061 -61.7383,24.32117 -114.746,61.73835 -133.4546,117.86413 -12.4724,36.79353 0,58.62023 12.4724,77.32883 11.8488,17.4614 23.6976,17.4614 35.5464,13.096 51.7604,-19.9558 96.0374,-120.35858 130.9601,-203.92362 51.7604,-21.20307 95.4138,-44.90062 119.735,-83.56504 z m -175.8608,105.39173 c -38.6644,91.6721 -89.8012,159.64663 -97.9083,147.79783 -11.2251,-15.5905 16.8378,-101.02635 97.9083,-147.79783 z" />
      <path
         id="path4155"
         style="font-style:normal;font-variant:normal;font-weight:normal;font-stretch:normal;font-size:623.61968994px;font-family:SignPainter;-inkscape-font-specification:SignPainter;fill:none;stroke:#000000;stroke-width:21.3999958;stroke-miterlimit:8.80000019;stroke-dasharray:none;stroke-opacity:1"
         d="m 1744.3481,512.24463 c -54.2549,85.4359 -112.8752,202.6764 -129.0893,259.42579 -9.3543,33.67547 -3.1181,52.38406 5.6126,61.73835 4.3653,4.36534 7.4834,4.36534 9.9779,-1.87086 21.8267,-51.76043 40.5353,-92.91933 57.9967,-127.21841 10.6015,6.23619 24.3211,8.73067 38.6644,6.23619 81.6942,-15.59049 149.0451,-62.36197 180.2261,-111.0043 21.203,-33.05185 31.8046,-69.22179 18.7086,-106.63897 -14.9669,-43.02976 -42.4062,-53.00767 -74.2108,-51.76043 -42.4061,1.87086 -89.1776,28.06288 -140.938,33.67546 -8.1071,0.62362 -9.3543,4.36534 -6.2362,11.22515 6.2362,13.09602 18.0849,23.69755 39.288,26.19203 z m -37.4172,157.15216 c 18.7086,-34.9227 36.17,-63.60921 52.3841,-92.29571 17.4613,-29.93375 23.6975,-51.76044 23.6975,-68.59817 41.1589,-11.84877 103.5209,-44.277 116.6169,-9.97791 16.8377,43.65338 -53.0077,144.67977 -192.6985,170.87179 z" />
      <path
         id="path4157"
         style="font-style:normal;font-variant:normal;font-weight:normal;font-stretch:normal;font-size:623.61968994px;font-family:SignPainter;-inkscape-font-specification:SignPainter;fill:none;stroke:#000000;stroke-width:21.3999958;stroke-miterlimit:8.80000019;stroke-dasharray:none;stroke-opacity:1"
         d="m 2124.1423,772.91766 c 9.3543,-18.70859 9.3543,-31.8046 6.2362,-38.66442 -2.4945,-4.98896 -8.7307,-4.98896 -11.2252,0.62362 -19.3322,39.91166 -53.6313,84.81228 -79.1997,86.05952 -23.0739,1.24724 -26.192,-28.06289 -10.6015,-64.23283 14.3432,-32.42822 44.277,-77.95246 57.9966,-105.39173 16.2141,-31.8046 -3.1181,-62.98559 -24.3212,-65.48007 -16.8377,-1.87085 -49.2659,18.7086 -74.8343,43.65338 26.8156,-41.78252 59.8675,-92.29571 74.8343,-117.2405 23.6976,-39.28804 25.5684,-70.46902 17.4614,-88.55399 -3.1181,-7.48344 -9.3543,-8.10706 -14.9669,-0.62362 -50.5132,62.98558 -180.2261,282.49971 -202.0528,344.86168 -13.096,37.41719 -7.4834,54.87854 2.4945,66.10369 3.7417,4.36534 8.1071,3.1181 10.6015,-2.49448 14.9669,-38.0408 38.0408,-81.69418 60.4912,-118.48774 36.1699,-59.24387 104.1444,-101.65001 112.8751,-96.66105 9.9779,5.61258 -44.277,70.46902 -64.8564,130.96013 -18.7086,54.25492 -5.6126,92.29572 46.7714,92.29572 36.7936,0 74.8344,-31.18099 92.2958,-66.72731 z" />
      <path
         id="path4159"
         style="font-style:normal;font-variant:normal;font-weight:normal;font-stretch:normal;font-size:623.61968994px;font-family:SignPainter;-inkscape-font-specification:SignPainter;fill:none;stroke:#000000;stroke-width:21.3999958;stroke-miterlimit:8.80000019;stroke-dasharray:none;stroke-opacity:1"
         d="m 2255.0732,543.42562 c -8.107,-16.83774 -26.192,-24.32117 -36.1699,-13.71964 -9.9779,10.60154 -13.096,29.31013 -3.1181,46.14786 9.3543,16.21411 26.8156,18.08497 34.9227,9.35429 8.107,-8.73067 12.4724,-25.5684 4.3653,-41.78251 z m -101.65,295.59573 c 34.9227,0 74.2107,-26.19203 92.9193,-64.85645 7.4835,-15.59049 9.3543,-28.6865 4.3654,-38.66442 -2.4945,-4.98896 -6.8598,-5.61258 -9.9779,0 -18.7086,43.02976 -53.0077,84.18866 -81.0706,85.4359 -19.9558,1.24724 -21.2031,-23.07393 -6.2362,-59.24387 13.096,-31.18099 39.288,-73.58713 52.3841,-101.02639 14.9668,-31.18099 9.9779,-57.99663 0.6236,-67.97455 -4.989,-5.61258 -9.3543,-3.74172 -14.9669,3.74172 -23.0739,32.42822 -64.2328,106.01535 -79.8233,151.53958 -17.4614,51.13682 -5.6126,91.04848 41.7825,91.04848 z" />
      <path
         id="path4161"
         style="font-style:normal;font-variant:normal;font-weight:normal;font-stretch:normal;font-size:623.61968994px;font-family:SignPainter;-inkscape-font-specification:SignPainter;fill:none;stroke:#000000;stroke-width:21.3999958;stroke-miterlimit:8.80000019;stroke-dasharray:none;stroke-opacity:1"
         d="m 2294.5268,704.94312 c 55.5022,-36.16995 125.3476,-111.00431 144.6798,-187.70953 7.4835,-29.31013 3.7417,-52.38406 -14.3432,-68.59817 -8.7307,-8.10705 -17.4614,-6.85981 -26.8157,3.1181 -63.6092,66.10369 -134.7018,178.97885 -157.7758,287.48868 -14.3432,67.35092 8.7307,97.28467 51.7605,98.53191 49.8895,1.24724 95.4138,-50.5132 104.1445,-69.22179 6.8598,-14.96687 9.3543,-28.6865 6.2362,-38.66442 -2.4945,-8.73067 -9.3543,-8.10705 -13.7197,0 -24.3211,48.01872 -67.9745,92.91934 -97.9083,90.42486 -28.0629,-2.49448 -21.203,-54.25492 3.7417,-115.36964 z m 11.2252,-26.81565 c 4.3653,-9.97792 9.3543,-19.95583 14.9669,-29.93375 43.0297,-79.82332 89.1776,-149.0451 97.2846,-144.05614 8.1071,4.98895 -26.8156,104.7681 -112.2515,173.98989 z" />
    </g>
  </g>
</svg>
