<?xml version="1.0" encoding="UTF-8" standalone="no"?>
<svg
   xmlns:dc="http://purl.org/dc/elements/1.1/"
   xmlns:cc="http://creativecommons.org/ns#"
   xmlns:rdf="http://www.w3.org/1999/02/22-rdf-syntax-ns#"
   xmlns:svg="http://www.w3.org/2000/svg"
   xmlns="http://www.w3.org/2000/svg"
   viewBox="0 0 720 1080"
   height="1080"
   width="720"
   version="1.1"
   id="svg4190">
  <metadata
     id="metadata4196">
    <rdf:RDF>
      <cc:Work
         rdf:about="">
        <dc:format>image/svg+xml</dc:format>
        <dc:type
           rdf:resource="http://purl.org/dc/dcmitype/StillImage" />
        <dc:title></dc:title>
      </cc:Work>
    </rdf:RDF>
  </metadata>
  <defs
     id="defs4194" />
  <path
     style="fill:none;stroke:#000000;stroke-opacity:1;stroke-width:5.99999981;stroke-miterlimit:4;stroke-dasharray:none"
     d="m 346.59703,988.01991 c -1.15685,-0.87558 -1.87039,-2.58647 -1.81986,-4.36359 0.0752,-2.64432 4.02184,-11.727 6.30683,-14.51417 0.5042,-0.61509 5.8747,-7.75502 11.9344,-15.86651 l 11.0176,-14.74818 -5.518,-8.69736 c -3.0349,-4.78355 -5.518,-9.05937 -5.518,-9.50183 0,-1.13531 -8.79,-0.99051 -13.135,0.21637 -4.01325,1.11474 -3.79073,0.7174 -9.22888,16.47917 -4.66522,13.52152 -4.58377,13.34861 -6.58762,13.98461 -2.75122,0.8732 -5.0485,-0.47443 -5.0485,-2.96155 0,-1.24464 1.35,-6.80724 3,-12.36135 1.65,-5.55411 3,-10.30512 3,-10.55779 0,-0.25268 -2.45682,-0.20585 -5.45959,0.10407 -5.20371,0.53706 -5.51755,0.4363 -6.6959,-2.14992 -2.14285,-4.70302 1.24292,-7.19811 12.20164,-8.99179 3.46348,-0.56689 3.61227,-0.78425 6.38214,-9.32335 4.19928,-12.94577 7.55194,-20.10188 9.74371,-20.79751 5.1716,-1.64142 6.4172,6.3192 2.3379,14.94212 -1.3696,2.89502 -2.7631,6.6283 -3.0966,8.29617 -0.75093,3.75446 1.0667,4.45298 8.1796,3.14356 9.5971,-1.76672 9.8904,-1.56419 14.452,9.97939 1.7624,4.45993 3.9929,8.82259 4.9567,9.69481 1.6295,1.47468 2.0939,1.16444 6.6254,-4.42645 2.6801,-3.30675 6.448,-8.27152 8.373,-11.03282 2.33,-3.3422 4.2112,-5.02416 5.6276,-5.03137 2.7698,-0.0141 4.5882,2.24048 3.7199,4.61242 -1.1789,3.22066 -8.6267,14.12953 -23.8115,34.87675 -16.1173,22.02129 -25.8377,36.06111 -26.8284,38.75 -0.7761,2.10631 -2.54053,2.19128 -5.11057,0.2461 z M 243.4857,950.31162 c -3.69656,-1.96491 -7.43432,-6.1021 -8.54014,-9.45276 -1.27349,-3.85872 -1.81394,-4.01302 -5.07396,-1.44869 -4.99014,3.92525 -12.74674,7.92504 -17.21793,8.87865 -8.9888,1.91713 -14.10779,-3.65109 -11.67214,-12.69643 2.35508,-8.74609 12.13369,-18.61763 20.83685,-21.03488 2.02489,-0.5624 6.83162,-1.04174 10.68162,-1.0652 l 7,-0.0426 5.97163,-12.46292 c 4.80945,-10.03749 6.37611,-12.46298 8.05,-12.46298 2.95198,0 4.47837,1.90114 4.47837,5.57788 0,3.78473 -1.34115,7.129 -9.11566,22.73063 -6.06702,12.17512 -7.15448,17.22056 -4.95723,22.99978 0.83148,2.18695 7.67876,7.45829 8.51571,6.55578 0.18569,-0.20024 1.01868,-2.38907 1.85108,-4.86407 7.38734,-21.96478 14.0132,-31.58287 16.76722,-24.33924 1.21196,3.18771 -0.93338,10.91779 -6.17035,22.2329 -5.15281,11.13329 -5.82717,11.74354 -13.09913,11.85381 -3.47613,0.0527 -7.2138,-0.37913 -8.30594,-0.95966 z M 214.29966,939.87817 C 222.22387,935.80349 233,926.0134 233,922.88895 c 0,-3.35518 -11.21749,-0.81401 -17.12156,3.87866 -3.05936,2.43164 -6.87844,9.03645 -6.87844,11.89575 0,3.29583 0.86639,3.49443 5.29966,1.21481 z m 64.95519,10.82431 c -1.78378,-1.13276 -1.76893,-4.45763 0.0656,-14.67867 3.28364,-18.29478 5.52824,-22.80124 10.27886,-20.63671 2.3608,1.07565 2.94677,0.75078 8.30233,-4.60298 4.94251,-4.94084 6.69864,-6.00927 12.34445,-7.51031 7.94944,-2.11351 9.80038,-2.16773 12.27322,-0.35955 1.63235,1.19361 1.73323,1.7599 0.71257,4 -0.75846,1.66464 -1.98767,2.60955 -3.39471,2.60955 -8.77404,0 -21.31595,13.03039 -30.81821,32.01853 -4.71915,9.43016 -6.58396,11.17962 -9.7641,9.16014 z M 457.357,950.53223 c -1.1786,-0.47565 -2.8661,-1.89725 -3.75,-3.15912 -3.5185,-5.0234 -1.2772,-10.24524 9.1203,-21.24849 6.8165,-7.21368 6.8376,-7.34441 2.367,-14.67774 -4.7933,-7.86256 -1.6507,-14.55461 9.3862,-19.9881 7.8567,-3.86781 11.3055,-3.44797 15.2947,1.8619 1.4986,1.9948 4.218,5.10531 6.0431,6.91225 3.8148,3.77694 3.6548,5.98948 -0.6154,8.51195 -2.7565,1.62829 -9.4901,7.17826 -13.9165,11.47022 -2.4552,2.38065 -2.3667,5.46877 0.3492,12.18083 0.7504,1.85467 1.3644,4.26024 1.3644,5.34571 0,8.2624 -16.4864,16.48573 -25.643,12.79059 z m 14.3824,-10.69604 c 2.2873,-2.85821 3.1486,-9.64556 1.3639,-10.74856 C 471.9155,928.35356 461,940.19041 461,942.21248 c 0,2.78017 8.0358,1.00209 10.7394,-2.37629 z m 7.7497,-29.83156 c 2.194,-1.91445 4.3315,-3.48082 4.75,-3.48082 0.4185,0 0.7609,-2.025 0.7609,-4.5 0,-4.00487 -0.2476,-4.49819 -2.25,-4.48355 -1.2375,0.009 -4.05,1.03276 -6.25,2.27492 -3.3861,1.91185 -4.0472,2.82368 -4.3078,5.94121 -0.2971,3.55403 1.1197,7.78777 2.593,7.74824 0.3931,-0.0106 2.5099,-1.58556 4.7039,-3.5 z m -73.8341,38.69044 c -4.015,-4.43653 -0.3835,-7.51817 6.8965,-5.85227 3.8977,0.89192 4.8601,0.6652 11.5044,-2.71031 10.769,-5.47089 20.8413,-13.82966 20.9172,-17.35868 0.042,-1.92758 -7.2261,-1.53011 -13.7134,0.75 -6.3244,2.22284 -10.4206,2.51942 -13.3254,0.96482 -3.2244,-1.72565 -2.2083,-4.82604 3.5657,-10.87947 7.2206,-7.57001 7.2406,-9.12049 0.1083,-8.38437 -4.7685,0.49215 -5.4647,0.32667 -6.0227,-1.43137 -0.967,-3.04662 0.063,-4.58883 4.6791,-7.00874 9.9488,-5.21503 19.2334,-6.77544 21.8139,-3.66613 1.1074,1.33424 1.0259,2.43288 -0.4988,6.72576 -1.0023,2.82207 -2.9425,6.59951 -4.3114,8.39431 -2.7606,3.61929 -2.6724,3.71081 4.552,4.72489 5.4603,0.76645 8.6373,2.8369 10.2214,6.6611 3.8914,9.39475 -12.647,25.8077 -30.0418,29.81391 -7.3366,1.68969 -14.4352,1.36681 -16.345,-0.74345 z m -135.00001,-42 c -1.80005,-1.98903 -2.14912,-5.84233 -0.73204,-8.08084 0.74502,-1.17687 1.40283,-1.19812 3.98469,-0.12868 2.41792,1.00154 3.09236,1.89316 3.09236,4.08815 0,2.63202 -2.18401,5.95011 -3.91644,5.95011 -0.42547,0 -1.51833,-0.82293 -2.42857,-1.82874 z M 122.34823,833.27381 c 1.9836,-11.20712 2.71763,-20.08294 2.12954,-25.75 -1.09995,-10.59955 -2.94752,-11.27759 -12.26193,-4.5 -6.83386,4.97264 -8.21584,5.41116 -8.21584,2.60699 0,-2.95627 -3.02989,-3.46101 -6.29317,-1.04836 -2.11437,1.56322 -3.20164,1.84656 -4.00461,1.0436 -0.60622,-0.60623 -2.34639,-1.10223 -3.86704,-1.10223 -1.6688,0 -3.15815,-0.73497 -3.75707,-1.85404 -0.79244,-1.4807 -0.39679,-2.42452 1.96482,-4.68709 C 89.66932,796.4245 91,794.57409 91,793.87065 c 0,-0.70344 0.78,-2.91467 1.73334,-4.91383 l 1.73333,-3.63484 -2.73333,-2.35112 c -2.65905,-2.28722 -3.58296,-4.44705 -1.90232,-4.44705 0.45706,0 1.39977,-1.06272 2.09491,-2.3616 1.5634,-2.92124 0.0728,-5.82212 -4.42593,-8.61332 -3.93333,-2.44039 -9.5946,-1.45626 -16.2721,2.82868 -2.69665,1.73043 -5.22897,3.14624 -5.62737,3.14624 -0.39841,0 -3.28401,1.2125 -6.41246,2.69445 -3.35214,1.58791 -7.56336,2.73816 -10.25445,2.80091 -3.1656,0.0738 -6.3409,1.10794 -10.35107,3.37114 -6.18613,3.49124 -7.61789,3.65776 -4.82095,0.56073 0.95726,-1.05998 3.02971,-3.50223 4.60542,-5.42723 1.57572,-1.925 7.84674,-8.82413 13.93559,-15.33141 8.90208,-9.51383 12.35629,-12.47537 17.63401,-15.11888 3.60986,-1.80812 7.68838,-3.62171 9.06338,-4.03021 3.81148,-1.13236 16.43391,-6.69333 17,-7.48956 1.26037,-1.77276 18.76231,-9.2396 23.8357,-10.169 3.11537,-0.57071 6.5643,-1.41961 7.6643,-1.88644 1.1,-0.46684 3.125,-1.15141 4.5,-1.52127 4.83194,-1.29975 14.566,-6.36236 16.79488,-8.73489 1.23909,-1.31895 2.69214,-3.92967 3.229,-5.80161 1.25818,-4.38703 1.2688,-18.61781 0.0145,-19.39303 C 150.85393,687.3155 147,694.63457 147,697.61594 c 0,2.4558 -3.68063,8.90787 -5.08156,8.90787 -2.23205,0 -1.0141,-5.15962 3.65883,-15.5 0.74566,-1.65 2.22022,-5.25 3.27682,-8 2.42345,-6.30753 12.44601,-27.14598 14.71814,-30.60129 1.64708,-2.50478 1.61254,-2.81536 -0.93084,-8.37085 -1.45277,-3.17325 -2.64162,-6.50267 -2.64189,-7.3987 -2.8e-4,-0.89604 -0.90028,-3.99649 -2,-6.88989 -1.09973,-2.8934 -1.9995,-7.14421 -1.9995,-9.44625 0,-2.81915 -0.80407,-5.34579 -2.46307,-7.73973 -4.4272,-6.38845 -8.88715,-31.26474 -8.61525,-48.05329 0.20393,-12.5915 -1.05869,-14.03819 -3.01427,-3.45371 -1.29607,7.01495 -1.88949,8.23712 -3.01924,6.21836 -1.23611,-2.20881 1.76279,-19.03342 4.2396,-23.78529 1.17149,-2.24754 2.28839,-5.97484 2.48201,-8.2829 1.68633,-20.10213 2.90035,-29.94916 5.00488,-40.59509 1.34806,-6.81924 2.67716,-12.76454 2.95356,-13.21176 0.2764,-0.44722 0.91722,-5.44284 1.42403,-11.10137 0.50681,-5.65853 1.22214,-11.75074 1.58961,-13.53824 0.53346,-2.59487 0.34442,-3.25 -0.93781,-3.25 -2.08199,0 -2.88218,-3.38048 -2.52138,-10.65178 0.51986,-10.47703 -0.0256,-17.35186 -1.37267,-17.30138 -0.6875,0.0258 -2.825,2.2705 -4.75,4.9883 -3.51665,4.96497 -5.62375,5.89484 -5.35606,2.36365 0.0792,-1.04433 1.99167,-8.57794 4.25,-16.74134 2.25833,-8.1634 4.10606,-15.31842 4.10606,-15.90004 0,-0.58162 -1.36524,0.82717 -3.03386,3.13064 -1.66863,2.30347 -3.4358,3.93972 -3.92705,3.63611 -2.93441,-1.81357 -3.47861,-8.57056 -3.46511,-43.02416 0.0142,-36.32091 0.74605,-44.97888 5.91679,-70 0.79563,-3.85 1.94409,-11.275 2.55215,-16.5 1.44941,-12.45454 2.45061,-16.35002 12.20831,-47.5 3.92949,-12.54429 16.38805,-37.36669 24.26316,-48.34185 3.29209,-4.58801 6.43561,-9.04853 6.98561,-9.91225 0.55,-0.86372 1.675,-2.32032 2.5,-3.23689 0.825,-0.91657 3.85487,-4.55606 6.73303,-8.08775 17.32531,-21.25923 51.07928,-45.0557 74.26697,-52.35804 33.06129,-10.411766 75.3257,-11.82574 110.5,-3.69682 13.0082,3.00625 43.6746,13.2682 46.5,15.56036 1.4795,1.20028 13.1979,6.57324 14.3362,6.57324 0.9822,0 19.0273,11.01432 21.1638,12.91795 1.1,0.98011 4.2398,3.29155 6.9774,5.13654 2.7376,1.84499 5.6626,3.90812 6.5,4.58474 3.0086,2.43083 10.6145,8.00548 15.4025,11.28904 7.6447,5.24264 28.5488,26.59822 36.2879,37.07173 19.8656,26.88443 22.25,32.97037 28.2088,72 6.4654,42.34753 7.4056,73.96934 2.9979,100.8248 -1.1126,6.77864 -1.9814,14.42864 -1.9308,17 1.2254,62.28734 1.1396,63.27667 -8.1279,93.6752 -3.0231,9.91607 -4.2909,12.60062 -8.7593,18.54746 l -3.9474,5.25356 2.4344,4.09949 c 1.3389,2.25472 3.429,6.01199 4.6447,8.34949 1.2157,2.3375 2.5707,4.25 3.0111,4.25 0.4404,0 0.8007,0.57247 0.8007,1.27216 0,1.94572 5.8508,8.61256 10.4179,11.87082 2.2451,1.60178 6.5571,5.1604 9.5821,7.90804 3.025,2.74765 10.45,8.20607 16.5,12.12983 11.2021,7.26516 12.7144,8.54997 12.1465,10.31915 -0.3338,1.03995 -1.2029,1.03648 -11.1465,-0.0444 l -6,-0.65222 2.6081,2.05925 c 1.4344,1.13259 5.1059,2.99383 8.1589,4.13609 5.4785,2.0498 8.6118,4.4558 7.3917,5.67596 -0.514,0.51398 -11.7277,-2.3458 -17.6587,-4.50343 -3.3006,-1.20072 1.4062,3.00096 5.9372,5.3 2.5095,1.27336 7.3753,4.38732 10.8128,6.91992 9.5433,7.03111 8.008,8.60183 -3.944,4.03474 -9.9717,-3.81041 -12.9034,-2.81031 -4.1971,1.43178 8.0249,3.91008 13.0945,7.11723 19.4971,12.33432 3.5495,2.89227 5.117,5.15466 6.8339,9.86335 1.2253,3.36061 2.0353,6.30277 1.8,6.53812 -0.2354,0.23535 -2.2817,-0.22615 -4.5474,-1.02555 -5.0186,-1.77065 -19.9482,-4.14551 -20.7871,-3.30661 -1.2481,1.24806 0.7517,2.51328 9.0322,5.71459 4.6832,1.81056 8.3049,3.63182 8.0481,4.04724 -0.2567,0.41543 -1.6836,1.06073 -3.1709,1.434 -1.4872,0.37327 -4.2708,1.33332 -6.1858,2.13344 l -3.4817,1.45477 12.0198,12.22733 c 6.6109,6.72504 13.8379,14.92734 16.0598,18.22734 4.8878,7.25907 11.1612,13.13911 17.6038,16.5 11.6689,6.08728 9.188,10.09666 -4.1128,6.64649 -2.8698,-0.74447 -5.2179,-1.17112 -5.2179,-0.94815 0,0.22297 0.8803,2.06955 1.9563,4.10351 1.076,2.03397 2.5329,5.865 3.2376,8.5134 1.3984,5.25554 1.425,5.27762 15.3061,12.72226 21.3741,11.46323 30.6708,17.28144 31.6254,19.79239 1.0545,2.77331 0.3974,4.17007 -1.9617,4.17007 -0.9451,0 -2.9224,1.2375 -4.3941,2.75 -4.6189,4.74695 -6.7082,6.25 -8.6878,6.25 -1.055,0 -2.6492,0.2805 -3.5426,0.62333 -2.0907,0.80228 -5.5392,7.54889 -5.5392,10.83683 0,1.39691 -0.9,3.43984 -2,4.53984 -1.1,1.1 -2,2.9 -2,4 0,1.1 -0.491,2 -1.091,2 -0.6001,0 -2.9361,1.57926 -5.1911,3.50947 -3.4393,2.94395 -4.6193,3.41204 -7.3229,2.90486 -2.6099,-0.48963 -3.436,-0.20617 -4.3441,1.49053 -0.6659,1.2443 -2.1079,2.09514 -3.5509,2.09514 -3.8541,0 -4.9024,3.14034 -3.1004,9.28769 0.8369,2.85505 1.2019,5.4709 0.8111,5.81298 -1.5771,1.38025 -56.0926,12.85819 -77.2107,16.25626 -10.4415,1.68013 -55.7038,6.30732 -99.5,10.17194 -11.6119,1.02466 -43.2987,4.65615 -71,8.13702 -43.33141,5.44492 -52.6945,6.18494 -86.5,6.83663 -17.325,0.33399 -44.325,1.03162 -60,1.5503 -15.675,0.51868 -29.97255,0.94398 -31.77234,0.94512 -2.40849,0.002 -4.3884,-1.02141 -7.5,-3.87489 -5.53498,-5.07582 -9.16822,-5.84338 -13.64723,-2.88312 -6.9822,4.61469 -7.10718,4.65334 -10.44959,3.23115 -2.8307,-1.20445 -3.51548,-1.10847 -7.14313,1.00123 l -4.01229,2.33338 -2.73023,-2.34845 c -1.50485,-1.29441 -2.28477,-2.62376 -1.73771,-2.96186 1.57445,-0.97307 1.15322,-4.30607 -0.6734,-5.3283 -0.91626,-0.51276 -2.82876,-0.58765 -4.25,-0.16642 -2.86565,0.84934 -16.43612,7.94178 -22.44833,11.73235 -3.73764,2.3565 -10.85223,5.26699 -12.87498,5.26699 -0.56574,0 -0.742,-1.38859 -0.41254,-3.25 z M 399.5,792.47068 c 12.6918,-0.59997 24.5386,-1.67776 28,-2.54737 11.8224,-2.97014 25.5,-7.54479 25.5,-8.52879 0,-0.55121 -0.5319,-1.98511 -1.1821,-3.18645 -0.6501,-1.20134 -1.7111,-5.24105 -2.3577,-8.97713 -1.1386,-6.57882 -0.5049,-14.64285 2.079,-26.45713 0.687,-3.14108 -0.6065,-4.56823 -2.0392,-2.25 -0.3399,0.55 -1.2665,1 -2.059,1 -1.1254,0 -1.441,-1.62807 -1.441,-7.43462 0,-8.3319 1.6593,-17.26718 5.3854,-29.00085 1.3829,-4.35475 2.2846,-8.28948 2.0038,-8.74383 -0.9932,-1.607 -4.2064,1.19846 -7.9064,6.90316 -2.0605,3.17688 -4.6996,7.23557 -5.8646,9.01931 -2.0159,3.08654 -4.6182,4.3711 -4.6182,2.27966 0,-1.71874 4.6277,-13.34237 7.866,-19.75741 1.7237,-3.41461 3.134,-7.31793 3.134,-8.67403 0,-2.28325 -0.2774,-2.42374 -3.75,-1.89907 -2.0625,0.31162 -5.1531,1.40833 -6.868,2.43713 -1.7149,1.0288 -4.5868,1.87055 -6.382,1.87055 -1.7952,0 -4.789,0.94254 -6.6529,2.09453 -2.3173,1.43214 -5.5171,2.20628 -10.1181,2.4479 -11.0252,0.57899 -12.5655,0.46301 -14.2639,-1.07402 -2.5915,-2.34531 -4.8,-1.76177 -11.5431,3.04998 -5.9897,4.27421 -6.3885,4.41273 -7.3784,2.5631 -0.8404,-1.5703 -1.7397,-1.84278 -4.5676,-1.38388 -2.5919,0.42061 -4.0538,0.0894 -5.5391,-1.25476 -1.9099,-1.72836 -2.1714,-1.73557 -4.8817,-0.13452 -3.3282,1.96603 -6.1797,2.16719 -7.7968,0.55003 -0.8555,-0.85551 -2.0306,-0.71982 -4.6884,0.54141 -2.79757,1.32752 -3.99574,1.44275 -5.67227,0.5455 -1.69711,-0.90827 -2.80619,-0.77097 -5.50271,0.6812 -2.83524,1.52688 -3.87682,1.63015 -6.49071,0.64351 -2.49422,-0.94146 -3.98448,-0.87952 -7.49223,0.31139 -3.98286,1.35221 -4.61356,1.33272 -6.97662,-0.21561 -2.31764,-1.51858 -3.15555,-1.55758 -7.76669,-0.36152 -6.59802,1.71144 -11.50651,1.41978 -14.66877,-0.8716 -2.56059,-1.85541 -4.20763,-2.36887 -14.31579,-4.46291 -3.29799,-0.68322 -5.46262,-1.59132 -5,-2.0976 0.4651,-0.50899 0.26563,-0.57563 -0.46401,-0.15502 -0.77471,0.44659 -2.66307,-0.47678 -4.78479,-2.33968 -2.47171,-2.17019 -4.52656,-3.07743 -6.97021,-3.07743 -3.7695,0 -4.19145,0.95961 -2.44353,5.55699 0.56192,1.47796 1.91527,12.86976 3.00745,25.3151 2.0595,23.46794 3.51064,33.85066 5.32894,38.12791 1.92743,4.53396 10.45199,13.61261 14.3384,15.27039 11.78713,5.0279 29.6833,11.60682 34.38433,12.64022 10.63957,2.33885 14.53304,3.40047 22.91921,6.24928 7.9673,2.70651 23.0786,5.49777 31,5.7261 1.925,0.0555 13.4,-0.36712 25.5,-0.93912 z M 277.15748,610.11449 c 0.36161,-0.50012 0.45363,-1.44052 0.20449,-2.08978 -0.24914,-0.64926 0.24249,-1.75767 1.09252,-2.46313 0.93127,-0.77288 1.5516,-2.9231 1.56082,-5.41021 0.0113,-3.03335 0.2723,-3.72991 0.98469,-2.62756 0.78997,1.2224 0.99534,1.08359 1.10969,-0.75 0.19515,-3.12942 0.30482,-3.56675 1.28062,-5.10676 0.72383,-1.14235 1.01,-1.14235 1.81082,0 0.73947,1.05484 1.064,1.07859 1.45833,0.10676 0.27897,-0.6875 2.14851,-1.25 4.15455,-1.25 2.00603,0 6.02384,-0.985 8.92845,-2.1889 6.61311,-2.74098 9.90497,-1.85485 12.75134,3.43251 2.31839,4.30659 3.56535,4.74971 9.0062,3.20042 3.42095,-0.97411 4.21464,-1.74583 5.48273,-5.33087 2.47468,-6.99629 8.11346,-6.74442 9.45798,0.42247 0.35745,1.9054 1.0838,3.46437 1.61411,3.46437 0.5303,0 2.19741,-1.78559 3.70468,-3.96799 3.45762,-5.00631 6.14556,-6.06064 8.06836,-3.16474 1.85544,2.79449 3.71924,2.69162 7.40364,-0.40864 3.18,-2.67573 4.6594,-2.77681 5.8421,-0.39911 1.0013,2.013 2.9264,15.15982 2.9264,19.98472 l 0,4.00712 3.1077,-1.60706 c 1.769,-0.91479 4.1299,-1.3505 5.4807,-1.01148 2.0032,0.50278 2.6017,0.0481 3.8412,-2.91862 1.2884,-3.08352 1.9035,-3.5142 5.0194,-3.5142 1.953,0 3.551,-0.39528 3.551,-0.87839 0,-1.69425 10.5306,-8.9589 13.4644,-9.28854 3.2026,-0.35983 3.8333,-1.53357 6.9855,-13.0006 1.2441,-4.5256 2.6654,-6.76611 7.0541,-11.11987 l 5.496,-5.45234 0,-12.81993 c 0,-12.48739 -1.5726,-24.44033 -3.2155,-24.44033 -0.4484,0 -3.1708,1.55604 -6.0499,3.45787 -7.4033,4.89045 -32.5985,13.17405 -38.4846,12.65282 -2.6229,-0.23226 -1.1156,-2.98051 2,-3.64671 4.7657,-1.01901 5.75,-2.22407 5.75,-7.03937 0,-5.6389 1.7027,-9.21949 5.2585,-11.05827 1.578,-0.81601 2.6945,-2.00735 2.4811,-2.64742 -1.1255,-3.37663 -13.8356,-3.4255 -30.856,-0.11865 -7.94064,1.54278 -19.89062,2.96445 -29.3836,3.49572 -8.8,0.4925 -18.83975,1.17843 -22.31055,1.5243 -4.88233,0.48653 -7.18778,0.23328 -10.18656,-1.11899 -3.68226,-1.66046 -4.22909,-1.66131 -10.93945,-0.0169 -3.88489,0.95205 -7.06344,2.08142 -7.06344,2.50973 0,0.4283 2.025,1.0824 4.5,1.45355 4.99732,0.74939 6.13246,2.55227 1.60699,2.55227 -1.59116,0 -3.13575,0.63257 -3.43243,1.4057 -0.29668,0.77314 -1.91983,1.7089 -3.60699,2.07946 -2.28625,0.50214 -3.06757,1.2324 -3.06757,2.8671 0,2.81631 6.13785,12.33672 10.24934,15.89774 2.7925,2.41861 2.92651,2.75 1.11211,2.75 -3.20842,0 -8.47448,-2.0352 -12.86145,-4.97064 -18.27036,-12.22518 -18.57596,-12.4684 -20.10734,-16.00334 l -1.07176,-2.47398 -5.15338,4.97398 c -4.4195,4.26566 -5.40026,5.93213 -6.8871,11.70225 -1.56399,6.06956 -1.58843,7.14649 -0.24964,11 1.20679,3.47357 1.89262,4.21505 3.67053,3.96838 1.81865,-0.25232 2.38089,0.42053 3.3424,4 2.1885,8.14725 4.04605,12.59674 6.40482,15.3418 1.30054,1.51354 3.34034,5.94906 4.53288,9.85672 1.19255,3.90766 2.50959,8.22983 2.92676,9.60483 0.41717,1.375 1.1544,2.36059 1.63828,2.1902 0.48388,-0.17038 1.36568,1.40462 1.95955,3.5 0.85788,3.0269 1.50885,3.74966 3.16777,3.51712 1.49258,-0.20922 2.25834,0.38605 2.68537,2.08749 1.10496,4.40249 6.02784,5.12756 8.79834,1.29587 z M 319,552.48795 c 5.13518,-1.20329 20.90551,-2.15938 18.5,-1.12158 -1.1,0.47457 -6.5,1.1056 -12,1.40228 -6.17312,0.333 -8.66059,0.22557 -6.5,-0.2807 z m -19.5,-0.96414 c -2.56703,-1.10309 7.66492,-1.10309 12,0 2.31124,0.58811 1.50769,0.7744 -3.5,0.8114 -3.575,0.0264 -7.4,-0.33871 -8.5,-0.8114 z m -8.16859,-2.21302 c 2.43413,-0.65066 4.17971,-0.67586 4.78648,-0.0691 0.60677,0.60677 -0.7905,0.98028 -3.8314,1.02417 l -4.78649,0.0691 3.83141,-1.02416 z M 344,548.02381 c 0.68469,-0.825 2.42729,-1.48405 3.87244,-1.46456 l 2.62756,0.0354 -2.5,1.42913 c -3.49114,1.99571 -5.6563,1.99571 -4,0 z m 9.9522,-3.16694 c 1.8987,-0.82708 4.0219,-2.25288 4.7182,-3.16843 1.1692,-1.53731 1.2684,-1.52687 1.2978,0.1364 0.031,1.75646 -5.3599,4.79721 -8.1861,4.6174 -0.7051,-0.0449 0.2714,-0.75828 2.1701,-1.58537 z m -194.94409,57.12817 c 1.09717,-4.38165 1.04458,-5.45866 -0.40328,-8.25852 -0.93379,-1.80575 -2.13819,-7.93702 -2.74248,-13.96123 -2.17334,-21.66612 -3.30154,-24.37179 -5.9023,-14.15487 -2.1208,8.33147 -2.19055,9.90787 -0.58781,13.28539 1.45049,3.05669 2.60358,8.97495 4.21391,21.628 0.31498,2.475 1.07208,5.52946 1.68243,6.78769 1.32858,2.73886 1.93696,1.87231 3.73953,-5.32646 z M 163,591.24018 c 0,-0.156 1.85054,-5.4435 4.11231,-11.75 6.53934,-18.23368 7.79864,-22.65937 10.4344,-36.67058 1.92487,-10.23228 2.2677,-14.05854 1.52321,-17 -3.54485,-14.00537 -4.68809,-17.68239 -5.58908,-17.97621 -0.56053,-0.18279 -1.75895,1.13302 -2.66316,2.92403 -8.08286,16.0103 -10.40401,27.13228 -11.42002,54.71998 -0.67556,18.34352 0.11626,26.03641 2.67989,26.03641 0.50735,0 0.92245,-0.12763 0.92245,-0.28363 z m 273.2401,-28.77991 c 1.2838,-0.58495 3.6675,-3.02624 5.2971,-5.42508 1.6295,-2.39885 4.2188,-5.10662 5.7539,-6.01728 2.7602,-1.63742 2.8283,-1.61514 6.1527,2.01426 l 3.3616,3.67 1.414,-2.83918 c 0.7778,-1.56155 1.9466,-2.72668 2.5974,-2.58918 0.6507,0.1375 1.1832,-0.23869 1.1832,-0.83599 0,-0.66367 1.6527,-0.95533 4.25,-0.75 l 4.25,0.33599 2.458,-5.32682 c 2.0885,-4.52617 2.8024,-5.26097 4.75,-4.88868 1.2606,0.24099 2.292,0.0506 2.292,-0.42317 0,-0.47373 0.8114,-0.86133 1.8032,-0.86133 1.3466,0 2.3594,-1.72707 4,-6.82095 2.013,-6.25022 2.1968,-8.83769 2.1968,-30.92371 0,-32.059 1.2249,-37.28825 7.676,-32.76971 2.8894,2.02378 3.0461,1.46992 4.7671,-16.8437 2.9911,-31.83027 2.9915,-31.77885 -0.4537,-59.14193 -1.3898,-11.03802 -5.8552,-37.63347 -7.6396,-45.5 -8.9386,-39.40636 -29.5908,-81.83708 -51.9368,-106.70615 -16.8927,-18.79997 -51.8687,-41.02587 -73.5973,-46.76825 -21.61256,-5.71171 -43.29412,-7.97609 -62.39493,-6.51638 -20.52975,1.5689 -32.52418,5.03941 -60.73701,17.57388 -14.81723,6.58303 -35.69929,23.74809 -38.47658,31.62775 -0.71105,2.01738 -3.08775,6.9334 -5.28157,10.92448 -7.75533,14.10884 -14.61011,36.13751 -16.91695,54.36467 -1.98363,15.67335 -2.29997,35.19875 -1.00451,62 2.13287,44.12566 2.52133,58.64844 1.82554,68.2474 -1.51796,20.94126 -1.93945,65.3725 -0.69347,73.10146 0.67839,4.20813 1.36439,7.82777 1.52444,8.04364 0.16006,0.21588 0.97115,-0.17197 1.80244,-0.86187 2.17705,-1.8068 4.24665,-0.6286 5.01131,2.85286 l 0.663,3.01863 3.38326,-1.61337 c 3.9649,-1.89073 6.47933,-0.62663 6.47933,3.2574 0,1.2657 0.52729,4.5856 1.17175,7.37756 0.84479,3.65985 1.64772,5.07629 2.87755,5.07629 2.40914,0 3.50886,1.73246 4.91948,7.75 0.67689,2.8875 1.39036,5.25 1.58551,5.25 0.19514,0 1.53503,-1.18023 2.97753,-2.62273 3.16208,-3.16208 4.24811,-2.43025 6.55282,4.4157 1.42685,4.23833 1.90551,4.72348 4.80698,4.87227 3.69692,0.18959 5.10838,-2.15745 5.10838,-8.49446 0,-3.65174 -0.76345,-6.0056 -7.01317,-21.62292 -2.88634,-7.21261 -3.07374,-8.31441 -2.01516,-11.84764 1.56456,-5.22204 12.2853,-15.79549 18.16261,-17.91308 2.40115,-0.86513 11.28694,-3.85456 19.74621,-6.64316 18.79975,-6.19736 21.83118,-8.49014 17.52155,-13.25223 -3.79097,-4.18897 2.4161,-5.33568 7.09611,-1.31095 1.64899,1.4181 6.57576,4.68005 10.9484,7.24878 4.37263,2.56873 9.68494,6.3819 11.80513,8.4737 3.63373,3.58509 4.11067,3.76493 8.31333,3.1347 2.45214,-0.36772 5.46566,-1.44446 6.69671,-2.39276 1.23106,-0.9483 4.79835,-2.88396 7.92732,-4.30147 5.08567,-2.30394 5.80575,-3.01069 6.78939,-6.66363 0.94543,-3.51109 1.83386,-4.46108 6.31095,-6.74832 7.56402,-3.86427 12.51042,-3.66554 21.71062,0.87224 7.1095,3.50661 7.9686,3.68992 16.5,3.52068 8.1488,-0.16165 9.5675,0.10131 15,2.78032 7.8465,3.86942 19.2275,15.14249 22.8068,22.59045 3.7014,7.70181 4.4433,13.82605 2.1463,17.71469 -1.6973,2.87315 -1.7006,3.1631 -0.066,5.65809 1.0348,1.57942 2.2582,6.90378 3.0628,13.33074 1.4658,11.70727 4.3438,24.98253 5.8429,26.95099 1.1618,1.52567 1.9432,1.55512 4.9471,0.18646 z M 241,472.95636 c 0,-1.86241 18.87063,-22.89525 19.75138,-22.01451 0.56775,0.56776 -3.80987,6.22187 -12.64482,16.33196 C 243.21875,472.86707 241,474.64123 241,472.95636 Z m 27.53777,-49.18255 c 0.97228,-1.5125 2.98738,-4.325 4.47799,-6.25 5.54971,-7.16697 7.76473,-14.14786 9.99486,-31.5 C 285.50894,366.58504 288,353.55019 288,359.91616 c 0,0.94913 0.42726,1.46162 0.94947,1.13888 3.0165,-1.8643 2.16695,21.62549 -1.17429,32.46877 -2.34939,7.62444 -7.81374,19.01239 -11.51133,23.99011 -5.57886,7.51032 -11.73763,12.50032 -7.72608,6.25989 z m 19.36255,-40.5 c 0.0548,-0.9625 -0.35032,-1.75 -0.90032,-1.75 -0.55,0 -0.95514,1.9125 -0.90032,4.25 0.0847,3.61042 0.22017,3.87378 0.90032,1.75 0.44035,-1.375 0.8455,-3.2875 0.90032,-4.25 z m 90.31598,14.62594 c -11.6405,-2.44373 -21.0851,-6.12113 -20.2276,-7.87594 0.2687,-0.55 2.8502,-1.95983 5.7366,-3.13295 2.8865,-1.17312 4.985,-1.70727 4.6634,-1.18699 -1.3937,2.25515 9.0415,9.37052 17.4274,11.88299 2.3011,0.68944 4.1839,1.6323 4.1839,2.09524 0,0.46294 -0.1125,0.78428 -0.25,0.71409 -0.1375,-0.0702 -5.3277,-1.19358 -11.5337,-2.49644 z M 256,398.63153 c 0,-0.49076 3.2625,-1.64645 7.25,-2.5682 3.9875,-0.92176 8.375,-2.10255 9.75,-2.62397 2.39926,-0.90985 2.41998,-0.88564 0.51423,0.60084 -2.00168,1.5613 -13.53166,5.48361 -16.11957,5.48361 -0.76706,0 -1.39466,-0.40153 -1.39466,-0.89228 z m -46.14098,-14.91442 c -3.5627,-2.50422 -2.3577,-6.53685 3.57292,-11.95711 5.37386,-4.91139 10.85796,-7.23619 17.0699,-7.23619 4.102,0 2.03226,1.67495 -3.74876,3.03371 -6.21319,1.46033 -9.23881,2.90187 -13.11081,6.24655 -5.81564,5.02364 2.47797,4.64389 16.35773,-0.74898 7.53307,-2.92692 11.3634,-3.80386 18.5,-4.23552 5.03854,-0.30475 10.64715,-0.0859 12.74214,0.49716 2.05818,0.57284 3.97102,0.67119 4.25076,0.21856 0.60405,-0.97737 -7.84523,-4.01148 -11.17104,-4.01148 -1.27702,0 -2.32186,-0.49418 -2.32186,-1.09819 0,-1.24058 10.75522,-0.31498 14.99557,1.29053 4.35867,1.65031 8.95532,5.79106 11.1039,10.00263 l 2.081,4.07911 -2.53715,2.53715 c -2.36292,2.36291 -2.80773,2.45609 -6.47707,1.35673 -2.95493,-0.88532 -8.90568,-0.92931 -23.80308,-0.17593 -32.03402,1.61998 -35.45961,1.63837 -37.50415,0.20127 z M 362,378.53735 c -1.1452,-0.73031 -1.2456,-1.37732 -0.4247,-2.73507 1.3614,-2.25169 10.3799,-8.42419 11.3933,-7.79788 0.4177,0.25813 2.6615,-0.44964 4.9862,-1.57283 9.5081,-4.59382 20.0891,-4.91158 33.5473,-1.00746 14.2409,4.13116 17.9568,5.84186 16.5006,7.5965 -2.8911,3.48356 -15.4771,5.1984 -43.5027,5.92722 -12.659,0.32921 -21.5958,0.16617 -22.5,-0.41048 z m 56.8714,-3.96456 c 2.0702,-1.16247 0.8183,-1.6304 -6.7376,-2.51818 -4.2737,-0.50216 -5.7496,-0.28345 -7.25,1.07433 -1.0361,0.93767 -1.8838,2.14972 -1.8838,2.69346 0,1.18242 13.4223,0.12565 15.8714,-1.24961 z m -35.2755,-3.54923 c 0.053,-2.47486 -0.086,-4.49975 -0.3086,-4.49975 -0.8482,0 -8.2873,6.37141 -8.2873,7.09781 0,0.76421 2.7482,1.51076 6.5,1.76576 1.711,0.11629 2.0139,-0.51428 2.0959,-4.36382 z m 9.4991,-2.80471 c -1.1082,-1.10824 -6.095,-0.0834 -6.095,1.25258 0,0.50024 0.7219,1.63143 1.6042,2.51377 1.4724,1.47232 1.762,1.42243 3.5219,-0.60675 1.2091,-1.39414 1.5671,-2.56145 0.9689,-3.1596 z M 354,369.64625 c 0,-3.05741 17.2796,-11.14938 25,-11.70741 20.5376,-1.48445 25.7729,-1.59146 26.4227,-0.54005 0.4956,0.80185 -1.916,1.12502 -8.3952,1.12502 -8.5049,0 -16.2401,1.63989 -23.5275,4.98788 -14.7068,6.75666 -19.5,8.26458 -19.5,6.13456 z M 191,353.68274 c 0,-3.55993 2.77086,-10.99196 5.36719,-14.39592 3.46388,-4.54139 10.82333,-8.39377 17.63281,-9.23009 3.025,-0.37152 8.2,-1.60009 11.5,-2.73015 4.55878,-1.56113 9.48995,-2.17545 20.5291,-2.5575 14.09771,-0.48791 14.67911,-0.42682 19.58142,2.05736 10.96222,5.55498 15.5312,13.59273 9.84465,17.3187 -2.14848,1.40774 -4.15036,1.56364 -12.85325,1.00098 -9.44603,-0.6107 -13.23555,-1.20606 -31.10192,-4.88637 -9.19579,-1.89424 -19.10771,-1.41487 -25,1.20908 -3.78494,1.68551 -6.0322,3.66382 -9.24755,8.14079 C 192.89046,355.68317 191,356.91469 191,353.68274 Z m 166.4408,-19.53898 c -1.4971,-5.9649 2.1324,-10.95058 11.0326,-15.15485 8.2071,-3.87688 18.3234,-4.46369 28.5724,-1.6574 4.0998,1.12257 12.8542,2.53414 19.4542,3.13684 15.302,1.39733 21.1133,3.10131 27.3266,8.01261 6.149,4.86051 7.4585,6.66074 4.0798,5.60845 -1.3235,-0.41219 -6.6814,-1.64187 -11.9064,-2.73261 -11.1965,-2.33733 -19.3811,-1.9076 -26.6665,1.40012 -4.3984,1.99698 -6.5438,2.20447 -23.8335,2.30505 -10.45,0.0608 -20.8904,0.46855 -23.2008,0.90614 -3.9778,0.75335 -4.2358,0.65649 -4.8584,-1.82435 z M 152.80277,519.77381 c 1.84793,-4.86107 5.00088,-15.59075 6.24439,-21.25 0.66468,-3.025 1.82194,-7.18648 2.57168,-9.24774 0.74973,-2.06126 1.61545,-6.33626 1.92381,-9.5 l 0.56066,-5.75226 -2.05166,3.92856 c -1.12841,2.16071 -2.05319,4.41071 -2.05508,5 -0.002,0.58929 -1.28372,4.22144 -2.84852,8.07144 -1.56481,3.85 -3.4154,10.15 -4.11244,14 -0.69704,3.85 -1.6652,8.30465 -2.15147,9.89922 -1.93367,6.34081 -0.25816,10.57692 1.91863,4.85078 z"
     id="path4761" />
</svg>
